{
  "accessors": [
    {
      "bufferView": 2,
      "componentType": 5126,
      "count": 65532,
      "max": [
        0.5321490168571472,
        0.9401640295982361,
        0.550229012966156
      ],
      "min": [
        -0.71036297082901,
        -0.8975800275802612,
        -0.33023801445961
      ],
      "type": "VEC3"
    },
    {
      "bufferView": 2,
      "byteOffset": 786384,
      "componentType": 5126,
      "count": 65532,
      "max": [
        0.9999864101409912,
        0.9999997615814209,
        1.0
      ],
      "min": [
        -0.9999905824661255,
        -0.9999903440475464,
        -0.9999724626541138
      ],
      "type": "VEC3"
    },
    {
      "bufferView": 3,
      "componentType": 5126,
      "count": 65532,
      "max": [
        0.999894380569458,
        0.9999881386756897,
        0.9999985098838806,
        -1.0
      ],
      "min": [
        -0.9999750256538391,
        -0.9999996423721313,
        -0.9999637603759766,
        -1.0
      ],
      "type": "VEC4"
    },
    {
      "bufferView": 1,
      "componentType": 5126,
      "count": 65532,
      "max": [
        0.9999030232429504,
        0.9993680119514465
      ],
      "min": [
        0.0011409999569877982,
        2.9802322387695313e-06
      ],
      "type": "VEC2"
    },
    {
      "bufferView": 1,
      "byteOffset": 524256,
      "componentType": 5126,
      "count": 65532,
      "max": [
        0.9999030232429504,
        0.9993680119514465
      ],
      "min": [
        0.0011409999569877982,
        2.9802322387695313e-06
      ],
      "type": "VEC2"
    },
    {
      "bufferView": 1,
      "byteOffset": 1048512,
      "componentType": 5126,
      "count": 65532,
      "max": [
        0.9999030232429504,
        0.9993680119514465
      ],
      "min": [
        0.0011409999569877982,
        2.9802322387695313e-06
      ],
      "type": "VEC2"
    },
    {
      "bufferView": 1,
      "byteOffset": 1572768,
      "componentType": 5126,
      "count": 65532,
      "max": [
        0.9999030232429504,
        0.9993680119514465
      ],
      "min": [
        0.0011409999569877982,
        2.9802322387695313e-06
      ],
      "type": "VEC2"
    },
    {
      "bufferView": 0,
      "componentType": 5125,
      "count": 343467,
      "type": "SCALAR"
    },
    {
      "bufferView": 2,
      "byteOffset": 1572768,
      "componentType": 5126,
      "count": 65532,
      "max": [
        0.6051759719848633,
        0.9398379921913147,
        0.29446399211883545
      ],
      "min": [
        -0.7063350081443787,
        -0.8975800275802612,
        -0.5509430170059204
      ],
      "type": "VEC3"
    },
    {
      "bufferView": 2,
      "byteOffset": 2359152,
      "componentType": 5126,
      "count": 65532,
      "max": [
        0.9998906850814819,
        0.9999980330467224,
        0.9999533295631409
      ],
      "min": [
        -0.9997454285621643,
        -0.9999626874923706,
        -0.999983549118042
      ],
      "type": "VEC3"
    },
    {
      "bufferView": 3,
      "byteOffset": 1048512,
      "componentType": 5126,
      "count": 65532,
      "max": [
        0.9999973773956299,
        0.999987006187439,
        0.9999943375587463,
        1.0
      ],
      "min": [
        -0.9999620318412781,
        -0.9999803900718689,
        -0.9999650716781616,
        -1.0
      ],
      "type": "VEC4"
    },
    {
      "bufferView": 1,
      "byteOffset": 2097024,
      "componentType": 5126,
      "count": 65532,
      "max": [
        0.9999759793281555,
        0.9999729990959167
      ],
      "min": [
        5.2999999752501026e-05,
        9.000301361083984e-06
      ],
      "type": "VEC2"
    },
    {
      "bufferView": 1,
      "byteOffset": 2621280,
      "componentType": 5126,
      "count": 65532,
      "max": [
        0.9999759793281555,
        0.9999729990959167
      ],
      "min": [
        5.2999999752501026e-05,
        9.000301361083984e-06
      ],
      "type": "VEC2"
    },
    {
      "bufferView": 1,
      "byteOffset": 3145536,
      "componentType": 5126,
      "count": 65532,
      "max": [
        0.9999759793281555,
        0.9999729990959167
      ],
      "min": [
        5.2999999752501026e-05,
        9.000301361083984e-06
      ],
      "type": "VEC2"
    },
    {
      "bufferView": 1,
      "byteOffset": 3669792,
      "componentType": 5126,
      "count": 65532,
      "max": [
        0.9999759793281555,
        0.9999729990959167
      ],
      "min": [
        5.2999999752501026e-05,
        9.000301361083984e-06
      ],
      "type": "VEC2"
    },
    {
      "bufferView": 0,
      "byteOffset": 1373868,
      "componentType": 5125,
      "count": 330357,
      "type": "SCALAR"
    },
    {
      "bufferView": 2,
      "byteOffset": 3145536,
      "componentType": 5126,
      "count": 37932,
      "max": [
        0.7122269868850708,
        0.739952027797699,
        0.38941600918769836
      ],
      "min": [
        -0.691228985786438,
        -0.6755120158195496,
        0.03729499876499176
      ],
      "type": "VEC3"
    },
    {
      "bufferView": 2,
      "byteOffset": 3600720,
      "componentType": 5126,
      "count": 37932,
      "max": [
        0.9997382760047913,
        0.9999980330467224,
        0.9999958276748657
      ],
      "min": [
        -0.9997512698173523,
        -0.9985843896865845,
        -0.9995090365409851
      ],
      "type": "VEC3"
    },
    {
      "bufferView": 3,
      "byteOffset": 2097024,
      "componentType": 5126,
      "count": 37932,
      "max": [
        0.9999881982803345,
        0.9963950514793396,
        0.9996952414512634,
        -1.0
      ],
      "min": [
        -0.999572217464447,
        -0.9999528527259827,
        -0.9961993098258972,
        -1.0
      ],
      "type": "VEC4"
    },
    {
      "bufferView": 1,
      "byteOffset": 4194048,
      "componentType": 5126,
      "count": 37932,
      "max": [
        0.9999610185623169,
        0.9999979734420776
      ],
      "min": [
        0.00014600000577047467,
        2.09808349609375e-05
      ],
      "type": "VEC2"
    },
    {
      "bufferView": 1,
      "byteOffset": 4497504,
      "componentType": 5126,
      "count": 37932,
      "max": [
        0.9999610185623169,
        0.9999979734420776
      ],
      "min": [
        0.00014600000577047467,
        2.09808349609375e-05
      ],
      "type": "VEC2"
    },
    {
      "bufferView": 1,
      "byteOffset": 4800960,
      "componentType": 5126,
      "count": 37932,
      "max": [
        0.9999610185623169,
        0.9999979734420776
      ],
      "min": [
        0.00014600000577047467,
        2.09808349609375e-05
      ],
      "type": "VEC2"
    },
    {
      "bufferView": 1,
      "byteOffset": 5104416,
      "componentType": 5126,
      "count": 37932,
      "max": [
        0.9999610185623169,
        0.9999979734420776
      ],
      "min": [
        0.00014600000577047467,
        2.09808349609375e-05
      ],
      "type": "VEC2"
    },
    {
      "bufferView": 0,
      "byteOffset": 2695296,
      "componentType": 5125,
      "count": 191412,
      "type": "SCALAR"
    }
  ],
  "asset": {
    "extras": {
      "author": "vinayredkar43 (https://sketchfab.com/vinayredkar43)",
      "license": "CC-BY-4.0 (http://creativecommons.org/licenses/by/4.0/)",
      "source": "https://sketchfab.com/3d-models/smiling-robot-waving-0af7e769873d46a68713c34247930ec1",
      "title": "Smiling Robot Waving"
    },
    "generator": "Sketchfab-16.73.0",
    "version": "2.0"
  },
  "bufferViews": [
    {
      "buffer": 0,
      "byteLength": 3460944,
      "name": "floatBufferViews",
      "target": 34963
    },
    {
      "buffer": 0,
      "byteLength": 5407872,
      "byteOffset": 3460944,
      "byteStride": 8,
      "name": "floatBufferViews",
      "target": 34962
    },
    {
      "buffer": 0,
      "byteLength": 4055904,
      "byteOffset": 8868816,
      "byteStride": 12,
      "name": "floatBufferViews",
      "target": 34962
    },
    {
      "buffer": 0,
      "byteLength": 2703936,
      "byteOffset": 12924720,
      "byteStride": 16,
      "name": "floatBufferViews",
      "target": 34962
    }
  ],
  "buffers": [
    {
      "byteLength": 15628656,
      "uri": "scene.bin"
    }
  ],
  "images": [
    {
      "uri": "textures/material_0_baseColor.jpeg"
    },
    {
      "uri": "textures/material_0_metallicRoughness.png"
    },
    {
      "uri": "textures/material_0_normal.jpeg"
    }
  ],
  "materials": [
    {
      "doubleSided": true,
      "name": "material_0",
      "normalTexture": {
        "index": 2,
        "texCoord": 2
      },
      "pbrMetallicRoughness": {
        "baseColorTexture": {
          "index": 0
        },
        "metallicRoughnessTexture": {
          "index": 1,
          "texCoord": 1
        }
      }
    }
  ],
  "meshes": [
    {
      "name": "Object_0",
      "primitives": [
        {
          "attributes": {
            "NORMAL": 1,
            "POSITION": 0,
            "TANGENT": 2,
            "TEXCOORD_0": 3,
            "TEXCOORD_1": 4,
            "TEXCOORD_2": 5,
            "TEXCOORD_3": 6
          },
          "indices": 7,
          "material": 0,
          "mode": 4
        }
      ]
    },
    {
      "name": "Object_1",
      "primitives": [
        {
          "attributes": {
            "NORMAL": 9,
            "POSITION": 8,
            "TANGENT": 10,
            "TEXCOORD_0": 11,
            "TEXCOORD_1": 12,
            "TEXCOORD_2": 13,
            "TEXCOORD_3": 14
          },
          "indices": 15,
          "material": 0,
          "mode": 4
        }
      ]
    },
    {
      "name": "Object_2",
      "primitives": [
        {
          "attributes": {
            "NORMAL": 17,
            "POSITION": 16,
            "TANGENT": 18,
            "TEXCOORD_0": 19,
            "TEXCOORD_1": 20,
            "TEXCOORD_2": 21,
            "TEXCOORD_3": 22
          },
          "indices": 23,
          "material": 0,
          "mode": 4
        }
      ]
    }
  ],
  "nodes": [
    {
      "children": [
        1
      ],
      "matrix": [
        1.0,
        0.0,
        0.0,
        0.0,
        0.0,
        2.220446049250313e-16,
        -1.0,
        0.0,
        0.0,
        1.0,
        2.220446049250313e-16,
        0.0,
        0.0,
        0.0,
        0.0,
        1.0
      ],
      "name": "Sketchfab_model"
    },
    {
      "children": [
        2
      ],
      "name": "root"
    },
    {
      "children": [
        3
      ],
      "matrix": [
        1.0,
        0.0,
        0.0,
        0.0,
        0.0,
        2.220446049250313e-16,
        1.0,
        0.0,
        0.0,
        -1.0,
        2.220446049250313e-16,
        0.0,
        0.0,
        0.0,
        0.0,
        1.0
      ],
      "name": "GLTF_SceneRootNode"
    },
    {
      "children": [
        4,
        5,
        6
      ],
      "name": "_0"
    },
    {
      "mesh": 0,
      "name": "Object_4"
    },
    {
      "mesh": 1,
      "name": "Object_5"
    },
    {
      "mesh": 2,
      "name": "Object_6"
    }
  ],
  "samplers": [
    {
      "magFilter": 9729,
      "minFilter": 9987,
      "wrapS": 10497,
      "wrapT": 10497
    }
  ],
  "scene": 0,
  "scenes": [
    {
      "name": "Sketchfab_Scene",
      "nodes": [
        0
      ]
    }
  ],
  "textures": [
    {
      "sampler": 0,
      "source": 0
    },
    {
      "sampler": 0,
      "source": 1
    },
    {
      "sampler": 0,
      "source": 2
    }
  ]
}
